PathFileType	4	(X/Y/Z)	D:/Ayumi_testdata/Ayumi_25_09_2024/motion/sumo_dl_80kg00/markers_experimental.trc	
DataRate	CameraRate	NumFrames	NumMarkers	Units	OrigDataRate	OrigDataStartFrame	OrigNumFrames	
200.00	200.00	4	52	mm	200.00	728	2164	
Frame#	Time	RSACR			LSACR			USACR			LBAR			RBAR			RHEE			RMT1			RMT5			RMT2			LHEE			LMT1			LMT5			LMT2			LMMAL			LLMAL			LTIB4			LTIB2			LTIB3			LTIB1			RMMAL			RLMAL			RTIB1			RTIB2			RTIB3			RTHI1			RTHI4			RTHI3			RTHI2			LTHI1			LTHI4			LTHI3			LTHI2			FHD			LBHD			RBHD			C7			T10			CLAV			LSHO			RSHO			LRAD			LUL			LRFIN			RRAD			RUL			RUFIN			LDUPA			LMUPA			LUUPA			RDUPA			RUUPA			RMUPA			
		X1	Y1	Z1	X2	Y2	Z2	X3	Y3	Z3	X4	Y4	Z4	X5	Y5	Z5	X6	Y6	Z6	X7	Y7	Z7	X8	Y8	Z8	X9	Y9	Z9	X10	Y10	Z10	X11	Y11	Z11	X12	Y12	Z12	X13	Y13	Z13	X14	Y14	Z14	X15	Y15	Z15	X16	Y16	Z16	X17	Y17	Z17	X18	Y18	Z18	X19	Y19	Z19	X20	Y20	Z20	X21	Y21	Z21	X22	Y22	Z22	X23	Y23	Z23	X24	Y24	Z24	X25	Y25	Z25	X26	Y26	Z26	X27	Y27	Z27	X28	Y28	Z28	X29	Y29	Z29	X30	Y30	Z30	X31	Y31	Z31	X32	Y32	Z32	X33	Y33	Z33	X34	Y34	Z34	X35	Y35	Z35	X36	Y36	Z36	X37	Y37	Z37	X38	Y38	Z38	X39	Y39	Z39	X40	Y40	Z40	X41	Y41	Z41	X42	Y42	Z42	X43	Y43	Z43	X44	Y44	Z44	X45	Y45	Z45	X46	Y46	Z46	X47	Y47	Z47	X48	Y48	Z48	X49	Y49	Z49	X50	Y50	Z50	X51	Y51	Z51	X52	Y52	Z52	

271	1.350	419.13089	975.35480	862.50043	420.23685	915.91748	864.25085	406.80368	945.25250	875.86475	208.31827	-196.59300	252.21629	179.13358	2023.80054	244.42715	293.88586	1361.52734	32.89155	122.85673	1458.40308	43.63234	185.01512	1510.28406	32.50886	150.59521	1488.66650	41.63128	333.91550	488.55176	42.13956	159.50226	404.31915	49.12830	220.26791	350.46042	33.13790	182.46373	373.06104	46.83364	273.86243	509.46558	65.14329	308.75778	436.92014	74.65067	327.63614	499.40292	206.65791	309.78705	508.95920	268.99289	350.41974	536.80481	255.87424	343.45313	546.48773	298.11133	242.00443	1351.63269	60.45421	278.74289	1416.04236	73.35748	265.91464	1349.94983	315.47064	308.44293	1327.78882	299.54956	279.69608	1363.53552	252.76889	377.26736	1138.26917	722.58264	292.01788	1217.20862	608.46075	335.28238	1210.14819	581.51056	340.45880	1189.87390	644.36725	392.29697	745.78485	713.90076	311.55124	663.09467	605.88080	360.06613	674.29218	591.92053	344.99771	693.43188	653.42645	-53.00290	813.87402	1327.07898	28.39593	832.93994	1403.49219	33.50367	957.44427	1402.22485	189.51610	912.59497	1260.38257	381.01715	939.97986	917.07233	109.14945	921.41107	1144.96106	185.25519	757.04156	1211.33801	143.50746	1064.16431	1220.99915	109.80013	425.71417	813.46271	139.53214	401.89145	826.50958	84.36537	379.37836	740.99445	110.52666	1421.59436	850.21222	146.95497	1449.06775	862.78052	81.49473	1474.57483	788.80310	158.14388	621.41833	1046.34644	196.54381	592.24780	1033.01599	192.47043	646.31104	1091.29224	136.82681	1226.69189	1036.38196	165.09683	1197.84070	1104.55969	173.65570	1245.06409	1064.55725 
272	1.355	419.95123	975.63446	862.11920	421.07956	916.21155	863.83240	407.58426	945.51953	875.43951	208.31763	-196.59795	252.21860	179.13383	2023.79541	244.42671	293.88037	1361.55359	32.92835	122.85868	1458.42053	43.64085	184.86252	1510.30200	32.54449	150.57330	1488.67639	41.63449	333.90610	488.54352	42.16218	159.49104	404.33420	49.12864	220.26414	350.45200	33.13042	182.45341	373.06897	46.83718	273.84805	509.42868	65.17319	308.70746	436.87344	74.65030	327.58484	499.24484	206.71527	309.72510	508.76413	269.05823	350.35553	536.64917	255.94620	343.34647	546.29108	298.18677	241.94559	1351.70398	60.50191	278.71423	1416.11475	73.35102	265.66861	1350.59119	315.56549	308.20911	1328.37659	299.74158	279.53790	1364.02930	252.84836	378.38712	1138.64319	722.30280	291.96597	1217.13074	608.07550	335.78461	1210.77551	581.38159	341.25305	1190.46704	644.22034	393.62057	746.12366	713.40521	312.52771	663.08142	605.79724	360.91306	674.31689	591.57776	346.15454	693.63684	653.08990	-54.49131	813.86523	1324.35022	26.54961	832.88849	1401.15833	31.62700	957.36755	1400.02173	188.26819	912.60883	1258.81055	381.53836	940.20648	916.59045	108.53138	921.47687	1143.01282	184.14337	756.90216	1209.44336	142.10773	1064.27307	1219.01965	107.98409	429.09286	808.71027	137.54553	404.98340	821.59210	82.09506	383.52185	736.06567	109.07511	1418.80408	845.29199	145.10313	1446.52234	857.79932	79.91458	1470.68115	783.18976	156.91904	622.48608	1043.17712	195.14542	593.22107	1029.73401	191.12346	646.62115	1088.53125	135.53749	1225.53345	1033.06775	163.73351	1197.39319	1101.64453	172.22104	1244.40735	1061.38696 
273	1.360	420.76382	975.94562	861.73468	421.75320	916.67798	863.36536	408.39355	945.82544	874.98627	208.32327	-196.59021	252.21474	179.12758	2023.79883	244.43007	293.88217	1361.57568	32.94306	122.88146	1458.42126	43.63235	184.83206	1510.30286	32.54984	150.57512	1488.69336	41.64409	333.89630	488.53088	42.16806	159.48563	404.33316	49.12776	220.26205	350.44043	33.13069	182.46162	373.06012	46.83868	273.82367	509.41516	65.19701	308.70996	436.85498	74.64154	327.53619	499.11282	206.76082	309.66357	508.55246	269.11053	350.59244	536.19391	256.06604	343.26266	546.07733	298.26651	241.95537	1351.74268	60.55149	278.70059	1416.18127	73.35048	265.39624	1351.22742	315.68063	307.95181	1328.98145	299.93802	279.27502	1364.51013	252.92561	379.41830	1139.00281	721.99091	293.03238	1218.19019	608.48102	335.76697	1211.66772	581.25659	342.07047	1191.00769	644.04199	394.95438	746.45837	712.89410	313.47565	663.10345	605.67596	361.79523	674.37787	591.18085	347.19342	694.11749	652.54071	-55.99158	813.86713	1321.65112	24.73106	832.83862	1398.83899	29.78738	957.31903	1397.77686	187.09351	912.53918	1257.30737	382.17236	940.43835	916.10059	107.91296	921.54498	1141.04688	183.09258	756.75464	1207.53186	140.72792	1064.37354	1217.03906	106.17240	432.54675	803.99036	135.56047	408.08072	816.69043	79.93480	387.70331	731.09558	107.51029	1415.89221	840.36719	143.26358	1443.95288	852.76691	78.07076	1467.17200	777.87201	155.72572	623.53998	1040.04553	193.73927	594.26636	1026.39819	189.99464	647.21185	1085.68213	134.39693	1224.40735	1029.76917	162.34311	1196.97302	1098.71411	170.79247	1243.75867	1058.17554 
274	1.365	421.56882	976.24414	861.34595	422.74069	916.80847	862.97101	409.14679	946.09357	874.52875	208.31549	-196.58661	252.20782	179.13408	2023.79944	244.42729	293.86792	1361.58508	32.97733	122.89098	1458.40991	43.64641	184.87389	1510.31885	32.54400	150.58722	1488.70471	41.64522	333.89786	488.52277	42.18318	159.48810	404.32043	49.12108	220.27260	350.43756	33.13253	182.47934	373.04941	46.83353	273.82813	509.38892	65.21522	308.69852	436.84467	74.64348	327.46509	499.00571	206.77766	309.58041	508.37711	269.14651	350.53619	536.04889	256.15277	343.18121	545.86060	298.35468	241.95464	1351.79285	60.60152	278.68188	1416.25659	73.33005	265.09073	1351.87085	315.76666	307.69455	1329.56799	300.13922	279.58716	1365.31079	253.07507	380.49600	1139.35950	721.64966	293.63690	1218.76172	608.58777	336.31723	1212.37732	581.15381	342.95175	1191.49329	643.75226	396.58124	746.51251	712.55847	314.44812	663.08618	605.48431	362.66266	674.39496	590.82098	348.45206	693.95001	652.43024	-57.51786	813.88263	1318.93616	22.91035	832.81049	1396.50317	27.99221	957.27155	1395.49341	185.91119	912.41315	1255.78955	382.70029	940.65704	915.60059	107.31997	921.63611	1139.04407	182.03398	756.61609	1205.56763	139.36313	1064.48584	1215.06702	104.33942	436.00137	799.27985	133.57407	411.17679	811.83496	77.91134	391.97827	725.98944	105.95243	1412.99512	835.43134	141.59123	1441.27563	847.63855	76.35625	1463.54675	772.49994	154.53835	624.67578	1036.93848	192.47734	595.19727	1023.25873	188.78212	647.71521	1082.90015	133.36649	1223.19299	1026.40625	161.00052	1196.32385	1095.63013	169.35162	1243.10901	1054.91455 
